<mxfile host="app.diagrams.net" agent="Mozilla/5.0 (Macintosh; Intel Mac OS X 10_15_7) AppleWebKit/605.1.15 (KHTML, like Gecko) Version/18.0 Safari/605.1.15" version="24.7.16">
  <diagram id="C5RBs43oDa-KdzZeNtuy" name="Page-1">
    <mxGraphModel dx="1504" dy="1108" grid="1" gridSize="10" guides="1" tooltips="1" connect="1" arrows="1" fold="1" page="1" pageScale="1" pageWidth="827" pageHeight="1169" math="0" shadow="0">
      <root>
        <mxCell id="WIyWlLk6GJQsqaUBKTNV-0" />
        <mxCell id="WIyWlLk6GJQsqaUBKTNV-1" parent="WIyWlLk6GJQsqaUBKTNV-0" />
        <mxCell id="WIyWlLk6GJQsqaUBKTNV-2" value="" style="rounded=0;html=1;jettySize=auto;orthogonalLoop=1;fontSize=11;endArrow=block;endFill=0;endSize=8;strokeWidth=1;shadow=0;labelBackgroundColor=none;edgeStyle=orthogonalEdgeStyle;exitX=0.5;exitY=1;exitDx=0;exitDy=0;" parent="WIyWlLk6GJQsqaUBKTNV-1" source="8oeeknY7nhdR1By7YojH-1" target="WIyWlLk6GJQsqaUBKTNV-7" edge="1">
          <mxGeometry relative="1" as="geometry">
            <mxPoint x="350" y="40" as="sourcePoint" />
            <mxPoint x="350" y="189.9999999999999" as="targetPoint" />
          </mxGeometry>
        </mxCell>
        <mxCell id="8oeeknY7nhdR1By7YojH-6" style="edgeStyle=orthogonalEdgeStyle;rounded=0;orthogonalLoop=1;jettySize=auto;html=1;entryX=0.5;entryY=0;entryDx=0;entryDy=0;shadow=0;strokeColor=default;strokeWidth=1;align=center;verticalAlign=middle;fontFamily=Helvetica;fontSize=11;fontColor=default;labelBackgroundColor=none;endArrow=block;endFill=0;endSize=8;" edge="1" parent="WIyWlLk6GJQsqaUBKTNV-1" source="WIyWlLk6GJQsqaUBKTNV-6" target="8oeeknY7nhdR1By7YojH-5">
          <mxGeometry relative="1" as="geometry" />
        </mxCell>
        <mxCell id="8oeeknY7nhdR1By7YojH-8" style="edgeStyle=orthogonalEdgeStyle;rounded=0;orthogonalLoop=1;jettySize=auto;html=1;entryX=0;entryY=0.5;entryDx=0;entryDy=0;shadow=0;strokeColor=default;strokeWidth=1;align=center;verticalAlign=middle;fontFamily=Helvetica;fontSize=11;fontColor=default;labelBackgroundColor=none;endArrow=block;endFill=0;endSize=8;" edge="1" parent="WIyWlLk6GJQsqaUBKTNV-1" source="WIyWlLk6GJQsqaUBKTNV-6" target="8oeeknY7nhdR1By7YojH-7">
          <mxGeometry relative="1" as="geometry" />
        </mxCell>
        <mxCell id="WIyWlLk6GJQsqaUBKTNV-6" value="¿Hay restricciones con &amp;gt;= o =?" style="rhombus;whiteSpace=wrap;html=1;shadow=0;fontFamily=Helvetica;fontSize=12;align=center;strokeWidth=1;spacing=6;spacingTop=-4;" parent="WIyWlLk6GJQsqaUBKTNV-1" vertex="1">
          <mxGeometry x="102.5" y="310" width="235" height="100" as="geometry" />
        </mxCell>
        <mxCell id="8oeeknY7nhdR1By7YojH-4" style="edgeStyle=orthogonalEdgeStyle;rounded=0;orthogonalLoop=1;jettySize=auto;html=1;entryX=0.5;entryY=0;entryDx=0;entryDy=0;" edge="1" parent="WIyWlLk6GJQsqaUBKTNV-1" source="WIyWlLk6GJQsqaUBKTNV-7" target="WIyWlLk6GJQsqaUBKTNV-6">
          <mxGeometry relative="1" as="geometry" />
        </mxCell>
        <mxCell id="WIyWlLk6GJQsqaUBKTNV-7" value="Ingresar los coeficientes de la función objetivo (c), restricciones (A), términos independientes (b), y tipos de restricciones (signs)&amp;nbsp;" style="rounded=1;whiteSpace=wrap;html=1;fontSize=12;glass=0;strokeWidth=1;shadow=0;" parent="WIyWlLk6GJQsqaUBKTNV-1" vertex="1">
          <mxGeometry x="55" y="190" width="330" height="70" as="geometry" />
        </mxCell>
        <mxCell id="8oeeknY7nhdR1By7YojH-1" value="Inicio" style="ellipse;whiteSpace=wrap;html=1;" vertex="1" parent="WIyWlLk6GJQsqaUBKTNV-1">
          <mxGeometry x="160" y="70" width="120" height="50" as="geometry" />
        </mxCell>
        <mxCell id="8oeeknY7nhdR1By7YojH-15" style="edgeStyle=orthogonalEdgeStyle;rounded=0;orthogonalLoop=1;jettySize=auto;html=1;shadow=0;strokeColor=default;strokeWidth=1;align=center;verticalAlign=middle;fontFamily=Helvetica;fontSize=11;fontColor=default;labelBackgroundColor=none;endArrow=block;endFill=0;endSize=8;" edge="1" parent="WIyWlLk6GJQsqaUBKTNV-1" source="8oeeknY7nhdR1By7YojH-5" target="8oeeknY7nhdR1By7YojH-16">
          <mxGeometry relative="1" as="geometry">
            <mxPoint x="220" y="640" as="targetPoint" />
          </mxGeometry>
        </mxCell>
        <mxCell id="8oeeknY7nhdR1By7YojH-5" value="Conversión a forma estándar" style="rounded=1;whiteSpace=wrap;html=1;" vertex="1" parent="WIyWlLk6GJQsqaUBKTNV-1">
          <mxGeometry x="160" y="510" width="120" height="60" as="geometry" />
        </mxCell>
        <mxCell id="8oeeknY7nhdR1By7YojH-11" style="edgeStyle=orthogonalEdgeStyle;rounded=0;orthogonalLoop=1;jettySize=auto;html=1;shadow=0;strokeColor=default;strokeWidth=1;align=center;verticalAlign=middle;fontFamily=Helvetica;fontSize=11;fontColor=default;labelBackgroundColor=none;endArrow=block;endFill=0;endSize=8;" edge="1" parent="WIyWlLk6GJQsqaUBKTNV-1" source="8oeeknY7nhdR1By7YojH-7" target="8oeeknY7nhdR1By7YojH-13">
          <mxGeometry relative="1" as="geometry">
            <mxPoint x="730.0000000000002" y="360" as="targetPoint" />
          </mxGeometry>
        </mxCell>
        <mxCell id="8oeeknY7nhdR1By7YojH-7" value="Mostrar mensaje &quot;El método simplex estándar no se puede resolver con restricciones &amp;gt;= o =&quot;" style="rounded=1;whiteSpace=wrap;html=1;" vertex="1" parent="WIyWlLk6GJQsqaUBKTNV-1">
          <mxGeometry x="430" y="310" width="220" height="100" as="geometry" />
        </mxCell>
        <mxCell id="8oeeknY7nhdR1By7YojH-9" value="Si" style="text;html=1;align=center;verticalAlign=middle;whiteSpace=wrap;rounded=0;" vertex="1" parent="WIyWlLk6GJQsqaUBKTNV-1">
          <mxGeometry x="350" y="330" width="60" height="30" as="geometry" />
        </mxCell>
        <mxCell id="8oeeknY7nhdR1By7YojH-10" value="No" style="text;html=1;align=center;verticalAlign=middle;whiteSpace=wrap;rounded=0;" vertex="1" parent="WIyWlLk6GJQsqaUBKTNV-1">
          <mxGeometry x="230" y="470" width="60" height="30" as="geometry" />
        </mxCell>
        <mxCell id="8oeeknY7nhdR1By7YojH-13" value="Fin" style="ellipse;whiteSpace=wrap;html=1;" vertex="1" parent="WIyWlLk6GJQsqaUBKTNV-1">
          <mxGeometry x="707.0000000000002" y="320" width="120" height="80" as="geometry" />
        </mxCell>
        <mxCell id="8oeeknY7nhdR1By7YojH-17" style="edgeStyle=orthogonalEdgeStyle;rounded=0;orthogonalLoop=1;jettySize=auto;html=1;shadow=0;strokeColor=default;strokeWidth=1;align=center;verticalAlign=middle;fontFamily=Helvetica;fontSize=11;fontColor=default;labelBackgroundColor=none;endArrow=block;endFill=0;endSize=8;" edge="1" parent="WIyWlLk6GJQsqaUBKTNV-1" source="8oeeknY7nhdR1By7YojH-16" target="8oeeknY7nhdR1By7YojH-18">
          <mxGeometry relative="1" as="geometry">
            <mxPoint x="220" y="740" as="targetPoint" />
          </mxGeometry>
        </mxCell>
        <mxCell id="8oeeknY7nhdR1By7YojH-16" value="Extender la función objetivo y agregar variables de holgura para transformar restricciones &amp;lt;= en ecuaciones" style="shape=parallelogram;perimeter=parallelogramPerimeter;whiteSpace=wrap;html=1;fixedSize=1;" vertex="1" parent="WIyWlLk6GJQsqaUBKTNV-1">
          <mxGeometry x="-5" y="610" width="450" height="70" as="geometry" />
        </mxCell>
        <mxCell id="8oeeknY7nhdR1By7YojH-19" style="edgeStyle=orthogonalEdgeStyle;rounded=0;orthogonalLoop=1;jettySize=auto;html=1;shadow=0;strokeColor=default;strokeWidth=1;align=center;verticalAlign=middle;fontFamily=Helvetica;fontSize=11;fontColor=default;labelBackgroundColor=none;endArrow=block;endFill=0;endSize=8;" edge="1" parent="WIyWlLk6GJQsqaUBKTNV-1" source="8oeeknY7nhdR1By7YojH-18" target="8oeeknY7nhdR1By7YojH-20">
          <mxGeometry relative="1" as="geometry">
            <mxPoint x="220" y="830" as="targetPoint" />
          </mxGeometry>
        </mxCell>
        <mxCell id="8oeeknY7nhdR1By7YojH-18" value="Generar Tableau inicial" style="rounded=1;whiteSpace=wrap;html=1;" vertex="1" parent="WIyWlLk6GJQsqaUBKTNV-1">
          <mxGeometry x="160" y="720" width="120" height="60" as="geometry" />
        </mxCell>
        <mxCell id="8oeeknY7nhdR1By7YojH-21" style="edgeStyle=orthogonalEdgeStyle;shape=connector;rounded=0;orthogonalLoop=1;jettySize=auto;html=1;shadow=0;strokeColor=default;strokeWidth=1;align=center;verticalAlign=middle;fontFamily=Helvetica;fontSize=11;fontColor=default;labelBackgroundColor=none;endArrow=block;endFill=0;endSize=8;" edge="1" parent="WIyWlLk6GJQsqaUBKTNV-1" source="8oeeknY7nhdR1By7YojH-20" target="8oeeknY7nhdR1By7YojH-22">
          <mxGeometry relative="1" as="geometry">
            <mxPoint x="220" y="1010" as="targetPoint" />
          </mxGeometry>
        </mxCell>
        <mxCell id="8oeeknY7nhdR1By7YojH-20" value="Crear el tableau con los coeficientes de las variables originales, las variables de holgura y los términos independientes" style="shape=parallelogram;perimeter=parallelogramPerimeter;whiteSpace=wrap;html=1;fixedSize=1;fontFamily=Helvetica;fontSize=11;fontColor=default;labelBackgroundColor=none;" vertex="1" parent="WIyWlLk6GJQsqaUBKTNV-1">
          <mxGeometry x="65" y="820" width="310" height="110" as="geometry" />
        </mxCell>
        <mxCell id="8oeeknY7nhdR1By7YojH-23" style="edgeStyle=orthogonalEdgeStyle;shape=connector;rounded=0;orthogonalLoop=1;jettySize=auto;html=1;shadow=0;strokeColor=default;strokeWidth=1;align=center;verticalAlign=middle;fontFamily=Helvetica;fontSize=11;fontColor=default;labelBackgroundColor=none;endArrow=block;endFill=0;endSize=8;" edge="1" parent="WIyWlLk6GJQsqaUBKTNV-1" source="8oeeknY7nhdR1By7YojH-22" target="8oeeknY7nhdR1By7YojH-24">
          <mxGeometry relative="1" as="geometry">
            <mxPoint x="220" y="1120" as="targetPoint" />
          </mxGeometry>
        </mxCell>
        <mxCell id="8oeeknY7nhdR1By7YojH-22" value="Iteraciones del método simplex" style="rounded=1;whiteSpace=wrap;html=1;fontFamily=Helvetica;fontSize=11;fontColor=default;labelBackgroundColor=none;" vertex="1" parent="WIyWlLk6GJQsqaUBKTNV-1">
          <mxGeometry x="160" y="980" width="120" height="60" as="geometry" />
        </mxCell>
        <mxCell id="8oeeknY7nhdR1By7YojH-25" style="edgeStyle=orthogonalEdgeStyle;shape=connector;rounded=0;orthogonalLoop=1;jettySize=auto;html=1;shadow=0;strokeColor=default;strokeWidth=1;align=center;verticalAlign=middle;fontFamily=Helvetica;fontSize=11;fontColor=default;labelBackgroundColor=none;endArrow=block;endFill=0;endSize=8;" edge="1" parent="WIyWlLk6GJQsqaUBKTNV-1" source="8oeeknY7nhdR1By7YojH-24" target="8oeeknY7nhdR1By7YojH-27">
          <mxGeometry relative="1" as="geometry">
            <mxPoint x="450" y="1145" as="targetPoint" />
          </mxGeometry>
        </mxCell>
        <mxCell id="8oeeknY7nhdR1By7YojH-29" style="edgeStyle=orthogonalEdgeStyle;shape=connector;rounded=0;orthogonalLoop=1;jettySize=auto;html=1;shadow=0;strokeColor=default;strokeWidth=1;align=center;verticalAlign=middle;fontFamily=Helvetica;fontSize=11;fontColor=default;labelBackgroundColor=none;endArrow=block;endFill=0;endSize=8;" edge="1" parent="WIyWlLk6GJQsqaUBKTNV-1" source="8oeeknY7nhdR1By7YojH-24" target="8oeeknY7nhdR1By7YojH-30">
          <mxGeometry relative="1" as="geometry">
            <mxPoint x="220" y="1290" as="targetPoint" />
          </mxGeometry>
        </mxCell>
        <mxCell id="8oeeknY7nhdR1By7YojH-24" value="¿Se ha alcanzado el número maximo&lt;span style=&quot;white-space: pre;&quot;&gt;&amp;nbsp;de iteraciónes? (100)&lt;/span&gt;" style="rhombus;whiteSpace=wrap;html=1;fontFamily=Helvetica;fontSize=11;fontColor=default;labelBackgroundColor=none;" vertex="1" parent="WIyWlLk6GJQsqaUBKTNV-1">
          <mxGeometry x="90" y="1080" width="260" height="130" as="geometry" />
        </mxCell>
        <mxCell id="8oeeknY7nhdR1By7YojH-27" value="Fin" style="rhombus;whiteSpace=wrap;html=1;fontFamily=Helvetica;fontSize=11;fontColor=default;labelBackgroundColor=none;" vertex="1" parent="WIyWlLk6GJQsqaUBKTNV-1">
          <mxGeometry x="410" y="1105" width="80" height="80" as="geometry" />
        </mxCell>
        <mxCell id="8oeeknY7nhdR1By7YojH-28" value="Si" style="text;html=1;align=center;verticalAlign=middle;whiteSpace=wrap;rounded=0;fontFamily=Helvetica;fontSize=11;fontColor=default;labelBackgroundColor=none;" vertex="1" parent="WIyWlLk6GJQsqaUBKTNV-1">
          <mxGeometry x="350" y="1120" width="60" height="30" as="geometry" />
        </mxCell>
        <mxCell id="8oeeknY7nhdR1By7YojH-32" style="edgeStyle=orthogonalEdgeStyle;shape=connector;rounded=0;orthogonalLoop=1;jettySize=auto;html=1;exitX=0.5;exitY=1;exitDx=0;exitDy=0;shadow=0;strokeColor=default;strokeWidth=1;align=center;verticalAlign=middle;fontFamily=Helvetica;fontSize=11;fontColor=default;labelBackgroundColor=none;endArrow=block;endFill=0;endSize=8;" edge="1" parent="WIyWlLk6GJQsqaUBKTNV-1" source="8oeeknY7nhdR1By7YojH-30" target="8oeeknY7nhdR1By7YojH-33">
          <mxGeometry relative="1" as="geometry">
            <mxPoint x="220.5" y="1390" as="targetPoint" />
          </mxGeometry>
        </mxCell>
        <mxCell id="8oeeknY7nhdR1By7YojH-30" value="Cálculo de ganancia relativa" style="rounded=1;whiteSpace=wrap;html=1;fontFamily=Helvetica;fontSize=11;fontColor=default;labelBackgroundColor=none;" vertex="1" parent="WIyWlLk6GJQsqaUBKTNV-1">
          <mxGeometry x="160" y="1260" width="120" height="60" as="geometry" />
        </mxCell>
        <mxCell id="8oeeknY7nhdR1By7YojH-31" value="No" style="text;html=1;align=center;verticalAlign=middle;whiteSpace=wrap;rounded=0;fontFamily=Helvetica;fontSize=11;fontColor=default;labelBackgroundColor=none;" vertex="1" parent="WIyWlLk6GJQsqaUBKTNV-1">
          <mxGeometry x="210" y="1220" width="60" height="30" as="geometry" />
        </mxCell>
        <mxCell id="8oeeknY7nhdR1By7YojH-34" style="edgeStyle=orthogonalEdgeStyle;shape=connector;rounded=0;orthogonalLoop=1;jettySize=auto;html=1;shadow=0;strokeColor=default;strokeWidth=1;align=center;verticalAlign=middle;fontFamily=Helvetica;fontSize=11;fontColor=default;labelBackgroundColor=none;endArrow=block;endFill=0;endSize=8;" edge="1" parent="WIyWlLk6GJQsqaUBKTNV-1" source="8oeeknY7nhdR1By7YojH-33" target="8oeeknY7nhdR1By7YojH-38">
          <mxGeometry relative="1" as="geometry">
            <mxPoint x="410" y="1415" as="targetPoint" />
          </mxGeometry>
        </mxCell>
        <mxCell id="8oeeknY7nhdR1By7YojH-35" style="edgeStyle=orthogonalEdgeStyle;shape=connector;rounded=0;orthogonalLoop=1;jettySize=auto;html=1;shadow=0;strokeColor=default;strokeWidth=1;align=center;verticalAlign=middle;fontFamily=Helvetica;fontSize=11;fontColor=default;labelBackgroundColor=none;endArrow=block;endFill=0;endSize=8;" edge="1" parent="WIyWlLk6GJQsqaUBKTNV-1" source="8oeeknY7nhdR1By7YojH-33" target="8oeeknY7nhdR1By7YojH-42">
          <mxGeometry relative="1" as="geometry">
            <mxPoint x="219.99999999999977" y="1530" as="targetPoint" />
          </mxGeometry>
        </mxCell>
        <mxCell id="8oeeknY7nhdR1By7YojH-33" value="¿Todas las variables son positivas?" style="rhombus;whiteSpace=wrap;html=1;fontFamily=Helvetica;fontSize=11;fontColor=default;labelBackgroundColor=none;" vertex="1" parent="WIyWlLk6GJQsqaUBKTNV-1">
          <mxGeometry x="105.25" y="1370" width="229.5" height="90" as="geometry" />
        </mxCell>
        <mxCell id="8oeeknY7nhdR1By7YojH-36" value="Si" style="text;html=1;align=center;verticalAlign=middle;whiteSpace=wrap;rounded=0;fontFamily=Helvetica;fontSize=11;fontColor=default;labelBackgroundColor=none;" vertex="1" parent="WIyWlLk6GJQsqaUBKTNV-1">
          <mxGeometry x="334.75" y="1390" width="60" height="30" as="geometry" />
        </mxCell>
        <mxCell id="8oeeknY7nhdR1By7YojH-37" value="No" style="text;html=1;align=center;verticalAlign=middle;whiteSpace=wrap;rounded=0;fontFamily=Helvetica;fontSize=11;fontColor=default;labelBackgroundColor=none;" vertex="1" parent="WIyWlLk6GJQsqaUBKTNV-1">
          <mxGeometry x="210" y="1480" width="60" height="30" as="geometry" />
        </mxCell>
        <mxCell id="8oeeknY7nhdR1By7YojH-39" style="edgeStyle=orthogonalEdgeStyle;shape=connector;rounded=0;orthogonalLoop=1;jettySize=auto;html=1;shadow=0;strokeColor=default;strokeWidth=1;align=center;verticalAlign=middle;fontFamily=Helvetica;fontSize=11;fontColor=default;labelBackgroundColor=none;endArrow=block;endFill=0;endSize=8;entryX=0;entryY=0.5;entryDx=0;entryDy=0;" edge="1" parent="WIyWlLk6GJQsqaUBKTNV-1" source="8oeeknY7nhdR1By7YojH-38" target="8oeeknY7nhdR1By7YojH-40">
          <mxGeometry relative="1" as="geometry">
            <mxPoint x="640" y="1415" as="targetPoint" />
          </mxGeometry>
        </mxCell>
        <mxCell id="8oeeknY7nhdR1By7YojH-38" value="Imprimir &quot;Se encontró la solución óptima&quot;" style="shape=parallelogram;perimeter=parallelogramPerimeter;whiteSpace=wrap;html=1;fixedSize=1;fontFamily=Helvetica;fontSize=11;fontColor=default;labelBackgroundColor=none;" vertex="1" parent="WIyWlLk6GJQsqaUBKTNV-1">
          <mxGeometry x="414" y="1366.25" width="160" height="97.5" as="geometry" />
        </mxCell>
        <mxCell id="8oeeknY7nhdR1By7YojH-40" value="Fin" style="rhombus;whiteSpace=wrap;html=1;fontFamily=Helvetica;fontSize=11;fontColor=default;labelBackgroundColor=none;" vertex="1" parent="WIyWlLk6GJQsqaUBKTNV-1">
          <mxGeometry x="640" y="1375" width="80" height="80" as="geometry" />
        </mxCell>
        <mxCell id="8oeeknY7nhdR1By7YojH-44" style="edgeStyle=orthogonalEdgeStyle;shape=connector;rounded=0;orthogonalLoop=1;jettySize=auto;html=1;shadow=0;strokeColor=default;strokeWidth=1;align=center;verticalAlign=middle;fontFamily=Helvetica;fontSize=11;fontColor=default;labelBackgroundColor=none;endArrow=block;endFill=0;endSize=8;" edge="1" parent="WIyWlLk6GJQsqaUBKTNV-1" source="8oeeknY7nhdR1By7YojH-42" target="8oeeknY7nhdR1By7YojH-43">
          <mxGeometry relative="1" as="geometry" />
        </mxCell>
        <mxCell id="8oeeknY7nhdR1By7YojH-42" value="Selección de la variable entrante" style="rounded=1;whiteSpace=wrap;html=1;fontFamily=Helvetica;fontSize=11;fontColor=default;labelBackgroundColor=none;" vertex="1" parent="WIyWlLk6GJQsqaUBKTNV-1">
          <mxGeometry x="145" y="1520" width="150" height="70" as="geometry" />
        </mxCell>
        <mxCell id="8oeeknY7nhdR1By7YojH-45" style="edgeStyle=orthogonalEdgeStyle;shape=connector;rounded=0;orthogonalLoop=1;jettySize=auto;html=1;shadow=0;strokeColor=default;strokeWidth=1;align=center;verticalAlign=middle;fontFamily=Helvetica;fontSize=11;fontColor=default;labelBackgroundColor=none;endArrow=block;endFill=0;endSize=8;entryX=0.5;entryY=0;entryDx=0;entryDy=0;" edge="1" parent="WIyWlLk6GJQsqaUBKTNV-1" source="8oeeknY7nhdR1By7YojH-43" target="8oeeknY7nhdR1By7YojH-46">
          <mxGeometry relative="1" as="geometry">
            <mxPoint x="220" y="1840" as="targetPoint" />
          </mxGeometry>
        </mxCell>
        <mxCell id="8oeeknY7nhdR1By7YojH-43" value="Seleccionar la variable con mayor cj - zj" style="shape=parallelogram;perimeter=parallelogramPerimeter;whiteSpace=wrap;html=1;fixedSize=1;fontFamily=Helvetica;fontSize=11;fontColor=default;labelBackgroundColor=none;" vertex="1" parent="WIyWlLk6GJQsqaUBKTNV-1">
          <mxGeometry x="140" y="1656" width="160" height="97.5" as="geometry" />
        </mxCell>
        <mxCell id="8oeeknY7nhdR1By7YojH-47" style="edgeStyle=orthogonalEdgeStyle;shape=connector;rounded=0;orthogonalLoop=1;jettySize=auto;html=1;shadow=0;strokeColor=default;strokeWidth=1;align=center;verticalAlign=middle;fontFamily=Helvetica;fontSize=11;fontColor=default;labelBackgroundColor=none;endArrow=block;endFill=0;endSize=8;" edge="1" parent="WIyWlLk6GJQsqaUBKTNV-1" source="8oeeknY7nhdR1By7YojH-46" target="8oeeknY7nhdR1By7YojH-49">
          <mxGeometry relative="1" as="geometry">
            <mxPoint x="220" y="1940" as="targetPoint" />
          </mxGeometry>
        </mxCell>
        <mxCell id="8oeeknY7nhdR1By7YojH-46" value="Cálcular razones (bi / ai)" style="shape=parallelogram;perimeter=parallelogramPerimeter;whiteSpace=wrap;html=1;fixedSize=1;fontFamily=Helvetica;fontSize=11;fontColor=default;labelBackgroundColor=none;" vertex="1" parent="WIyWlLk6GJQsqaUBKTNV-1">
          <mxGeometry x="140" y="1810" width="160" height="70" as="geometry" />
        </mxCell>
        <mxCell id="8oeeknY7nhdR1By7YojH-50" style="edgeStyle=orthogonalEdgeStyle;shape=connector;rounded=0;orthogonalLoop=1;jettySize=auto;html=1;shadow=0;strokeColor=default;strokeWidth=1;align=center;verticalAlign=middle;fontFamily=Helvetica;fontSize=11;fontColor=default;labelBackgroundColor=none;endArrow=block;endFill=0;endSize=8;" edge="1" parent="WIyWlLk6GJQsqaUBKTNV-1" source="8oeeknY7nhdR1By7YojH-49" target="8oeeknY7nhdR1By7YojH-51">
          <mxGeometry relative="1" as="geometry">
            <mxPoint x="220" y="2030" as="targetPoint" />
          </mxGeometry>
        </mxCell>
        <mxCell id="8oeeknY7nhdR1By7YojH-49" value="Verificación de ilimitación" style="rounded=1;whiteSpace=wrap;html=1;fontFamily=Helvetica;fontSize=11;fontColor=default;labelBackgroundColor=none;" vertex="1" parent="WIyWlLk6GJQsqaUBKTNV-1">
          <mxGeometry x="160" y="1910" width="120" height="60" as="geometry" />
        </mxCell>
        <mxCell id="8oeeknY7nhdR1By7YojH-52" style="edgeStyle=orthogonalEdgeStyle;shape=connector;rounded=0;orthogonalLoop=1;jettySize=auto;html=1;shadow=0;strokeColor=default;strokeWidth=1;align=center;verticalAlign=middle;fontFamily=Helvetica;fontSize=11;fontColor=default;labelBackgroundColor=none;endArrow=block;endFill=0;endSize=8;entryX=0;entryY=0.5;entryDx=0;entryDy=0;" edge="1" parent="WIyWlLk6GJQsqaUBKTNV-1" source="8oeeknY7nhdR1By7YojH-51" target="8oeeknY7nhdR1By7YojH-56">
          <mxGeometry relative="1" as="geometry">
            <mxPoint x="400" y="2065" as="targetPoint" />
          </mxGeometry>
        </mxCell>
        <mxCell id="8oeeknY7nhdR1By7YojH-53" style="edgeStyle=orthogonalEdgeStyle;shape=connector;rounded=0;orthogonalLoop=1;jettySize=auto;html=1;shadow=0;strokeColor=default;strokeWidth=1;align=center;verticalAlign=middle;fontFamily=Helvetica;fontSize=11;fontColor=default;labelBackgroundColor=none;endArrow=block;endFill=0;endSize=8;" edge="1" parent="WIyWlLk6GJQsqaUBKTNV-1" source="8oeeknY7nhdR1By7YojH-51" target="8oeeknY7nhdR1By7YojH-59">
          <mxGeometry relative="1" as="geometry">
            <mxPoint x="220" y="2190" as="targetPoint" />
          </mxGeometry>
        </mxCell>
        <mxCell id="8oeeknY7nhdR1By7YojH-51" value="¿Todas las razones son infinitas?" style="rhombus;whiteSpace=wrap;html=1;fontFamily=Helvetica;fontSize=11;fontColor=default;labelBackgroundColor=none;" vertex="1" parent="WIyWlLk6GJQsqaUBKTNV-1">
          <mxGeometry x="117.5" y="2000" width="205" height="130" as="geometry" />
        </mxCell>
        <mxCell id="8oeeknY7nhdR1By7YojH-54" value="Si" style="text;html=1;align=center;verticalAlign=middle;whiteSpace=wrap;rounded=0;fontFamily=Helvetica;fontSize=11;fontColor=default;labelBackgroundColor=none;" vertex="1" parent="WIyWlLk6GJQsqaUBKTNV-1">
          <mxGeometry x="325" y="2040" width="60" height="30" as="geometry" />
        </mxCell>
        <mxCell id="8oeeknY7nhdR1By7YojH-55" value="No" style="text;html=1;align=center;verticalAlign=middle;whiteSpace=wrap;rounded=0;fontFamily=Helvetica;fontSize=11;fontColor=default;labelBackgroundColor=none;" vertex="1" parent="WIyWlLk6GJQsqaUBKTNV-1">
          <mxGeometry x="210" y="2140" width="60" height="30" as="geometry" />
        </mxCell>
        <mxCell id="8oeeknY7nhdR1By7YojH-57" style="edgeStyle=orthogonalEdgeStyle;shape=connector;rounded=0;orthogonalLoop=1;jettySize=auto;html=1;shadow=0;strokeColor=default;strokeWidth=1;align=center;verticalAlign=middle;fontFamily=Helvetica;fontSize=11;fontColor=default;labelBackgroundColor=none;endArrow=block;endFill=0;endSize=8;" edge="1" parent="WIyWlLk6GJQsqaUBKTNV-1" source="8oeeknY7nhdR1By7YojH-56" target="8oeeknY7nhdR1By7YojH-58">
          <mxGeometry relative="1" as="geometry">
            <mxPoint x="620" y="2065" as="targetPoint" />
          </mxGeometry>
        </mxCell>
        <mxCell id="8oeeknY7nhdR1By7YojH-56" value="Imprimir &quot;La solución es ilimitada&quot;" style="shape=parallelogram;perimeter=parallelogramPerimeter;whiteSpace=wrap;html=1;fixedSize=1;fontFamily=Helvetica;fontSize=11;fontColor=default;labelBackgroundColor=none;" vertex="1" parent="WIyWlLk6GJQsqaUBKTNV-1">
          <mxGeometry x="385" y="2017.5" width="160" height="95" as="geometry" />
        </mxCell>
        <mxCell id="8oeeknY7nhdR1By7YojH-58" value="Fin" style="rhombus;whiteSpace=wrap;html=1;fontFamily=Helvetica;fontSize=11;fontColor=default;labelBackgroundColor=none;" vertex="1" parent="WIyWlLk6GJQsqaUBKTNV-1">
          <mxGeometry x="600" y="2025" width="80" height="80" as="geometry" />
        </mxCell>
        <mxCell id="8oeeknY7nhdR1By7YojH-60" style="edgeStyle=orthogonalEdgeStyle;shape=connector;rounded=0;orthogonalLoop=1;jettySize=auto;html=1;shadow=0;strokeColor=default;strokeWidth=1;align=center;verticalAlign=middle;fontFamily=Helvetica;fontSize=11;fontColor=default;labelBackgroundColor=none;endArrow=block;endFill=0;endSize=8;" edge="1" parent="WIyWlLk6GJQsqaUBKTNV-1" source="8oeeknY7nhdR1By7YojH-59" target="8oeeknY7nhdR1By7YojH-61">
          <mxGeometry relative="1" as="geometry">
            <mxPoint x="220" y="2330" as="targetPoint" />
          </mxGeometry>
        </mxCell>
        <mxCell id="8oeeknY7nhdR1By7YojH-59" value="Selección de la variable saliente" style="rounded=1;whiteSpace=wrap;html=1;fontFamily=Helvetica;fontSize=11;fontColor=default;labelBackgroundColor=none;" vertex="1" parent="WIyWlLk6GJQsqaUBKTNV-1">
          <mxGeometry x="145" y="2180" width="150" height="70" as="geometry" />
        </mxCell>
        <mxCell id="8oeeknY7nhdR1By7YojH-62" style="edgeStyle=orthogonalEdgeStyle;shape=connector;rounded=0;orthogonalLoop=1;jettySize=auto;html=1;shadow=0;strokeColor=default;strokeWidth=1;align=center;verticalAlign=middle;fontFamily=Helvetica;fontSize=11;fontColor=default;labelBackgroundColor=none;endArrow=block;endFill=0;endSize=8;" edge="1" parent="WIyWlLk6GJQsqaUBKTNV-1" source="8oeeknY7nhdR1By7YojH-61" target="8oeeknY7nhdR1By7YojH-63">
          <mxGeometry relative="1" as="geometry">
            <mxPoint x="220" y="2500" as="targetPoint" />
          </mxGeometry>
        </mxCell>
        <mxCell id="8oeeknY7nhdR1By7YojH-61" value="Seleccionar la fila con menor razón positiva" style="shape=parallelogram;perimeter=parallelogramPerimeter;whiteSpace=wrap;html=1;fixedSize=1;fontFamily=Helvetica;fontSize=11;fontColor=default;labelBackgroundColor=none;" vertex="1" parent="WIyWlLk6GJQsqaUBKTNV-1">
          <mxGeometry x="135" y="2310" width="170" height="110" as="geometry" />
        </mxCell>
        <mxCell id="8oeeknY7nhdR1By7YojH-64" style="edgeStyle=orthogonalEdgeStyle;shape=connector;rounded=0;orthogonalLoop=1;jettySize=auto;html=1;shadow=0;strokeColor=default;strokeWidth=1;align=center;verticalAlign=middle;fontFamily=Helvetica;fontSize=11;fontColor=default;labelBackgroundColor=none;endArrow=block;endFill=0;endSize=8;" edge="1" parent="WIyWlLk6GJQsqaUBKTNV-1" source="8oeeknY7nhdR1By7YojH-63" target="8oeeknY7nhdR1By7YojH-65">
          <mxGeometry relative="1" as="geometry">
            <mxPoint x="220" y="2600" as="targetPoint" />
          </mxGeometry>
        </mxCell>
        <mxCell id="8oeeknY7nhdR1By7YojH-63" value="Pivoteo" style="rounded=1;whiteSpace=wrap;html=1;fontFamily=Helvetica;fontSize=11;fontColor=default;labelBackgroundColor=none;" vertex="1" parent="WIyWlLk6GJQsqaUBKTNV-1">
          <mxGeometry x="160" y="2470" width="120" height="60" as="geometry" />
        </mxCell>
        <mxCell id="8oeeknY7nhdR1By7YojH-68" value="" style="edgeStyle=orthogonalEdgeStyle;shape=connector;rounded=0;orthogonalLoop=1;jettySize=auto;html=1;shadow=0;strokeColor=default;strokeWidth=1;align=center;verticalAlign=middle;fontFamily=Helvetica;fontSize=11;fontColor=default;labelBackgroundColor=none;endArrow=block;endFill=0;endSize=8;" edge="1" parent="WIyWlLk6GJQsqaUBKTNV-1" source="8oeeknY7nhdR1By7YojH-65" target="8oeeknY7nhdR1By7YojH-67">
          <mxGeometry relative="1" as="geometry" />
        </mxCell>
        <mxCell id="8oeeknY7nhdR1By7YojH-65" value="Actualizar el tableau realizando la operación de pivote sobre el elemento correspondiente&amp;nbsp;" style="shape=parallelogram;perimeter=parallelogramPerimeter;whiteSpace=wrap;html=1;fixedSize=1;fontFamily=Helvetica;fontSize=11;fontColor=default;labelBackgroundColor=none;" vertex="1" parent="WIyWlLk6GJQsqaUBKTNV-1">
          <mxGeometry x="15" y="2570" width="410" height="70" as="geometry" />
        </mxCell>
        <mxCell id="8oeeknY7nhdR1By7YojH-69" style="edgeStyle=orthogonalEdgeStyle;shape=connector;rounded=0;orthogonalLoop=1;jettySize=auto;html=1;shadow=0;strokeColor=default;strokeWidth=1;align=center;verticalAlign=middle;fontFamily=Helvetica;fontSize=11;fontColor=default;labelBackgroundColor=none;endArrow=block;endFill=0;endSize=8;" edge="1" parent="WIyWlLk6GJQsqaUBKTNV-1" source="8oeeknY7nhdR1By7YojH-67" target="8oeeknY7nhdR1By7YojH-70">
          <mxGeometry relative="1" as="geometry">
            <mxPoint x="220" y="2830" as="targetPoint" />
          </mxGeometry>
        </mxCell>
        <mxCell id="8oeeknY7nhdR1By7YojH-67" value="Actualizar base" style="whiteSpace=wrap;html=1;fontSize=11;labelBackgroundColor=none;rounded=1;" vertex="1" parent="WIyWlLk6GJQsqaUBKTNV-1">
          <mxGeometry x="160" y="2710" width="120" height="60" as="geometry" />
        </mxCell>
        <mxCell id="8oeeknY7nhdR1By7YojH-74" style="edgeStyle=orthogonalEdgeStyle;shape=connector;rounded=0;orthogonalLoop=1;jettySize=auto;html=1;shadow=0;strokeColor=default;strokeWidth=1;align=center;verticalAlign=middle;fontFamily=Helvetica;fontSize=11;fontColor=default;labelBackgroundColor=none;endArrow=block;endFill=0;endSize=8;" edge="1" parent="WIyWlLk6GJQsqaUBKTNV-1" source="8oeeknY7nhdR1By7YojH-70" target="8oeeknY7nhdR1By7YojH-75">
          <mxGeometry relative="1" as="geometry">
            <mxPoint x="219.99999999999977" y="2990" as="targetPoint" />
          </mxGeometry>
        </mxCell>
        <mxCell id="8oeeknY7nhdR1By7YojH-70" value="Actualizar la base con la nueva variable entrante en lugar de la variable saliente" style="shape=parallelogram;perimeter=parallelogramPerimeter;whiteSpace=wrap;html=1;fixedSize=1;fontFamily=Helvetica;fontSize=11;fontColor=default;labelBackgroundColor=none;" vertex="1" parent="WIyWlLk6GJQsqaUBKTNV-1">
          <mxGeometry x="125" y="2810" width="190" height="110" as="geometry" />
        </mxCell>
        <mxCell id="8oeeknY7nhdR1By7YojH-77" style="edgeStyle=orthogonalEdgeStyle;shape=connector;rounded=0;orthogonalLoop=1;jettySize=auto;html=1;entryX=0;entryY=0.5;entryDx=0;entryDy=0;shadow=0;strokeColor=default;strokeWidth=1;align=center;verticalAlign=middle;fontFamily=Helvetica;fontSize=11;fontColor=default;labelBackgroundColor=none;endArrow=block;endFill=0;endSize=8;" edge="1" parent="WIyWlLk6GJQsqaUBKTNV-1" source="8oeeknY7nhdR1By7YojH-75" target="8oeeknY7nhdR1By7YojH-30">
          <mxGeometry relative="1" as="geometry">
            <Array as="points">
              <mxPoint x="-10" y="3030" />
              <mxPoint x="-10" y="1290" />
            </Array>
          </mxGeometry>
        </mxCell>
        <mxCell id="8oeeknY7nhdR1By7YojH-79" style="edgeStyle=orthogonalEdgeStyle;shape=connector;rounded=0;orthogonalLoop=1;jettySize=auto;html=1;shadow=0;strokeColor=default;strokeWidth=1;align=center;verticalAlign=middle;fontFamily=Helvetica;fontSize=11;fontColor=default;labelBackgroundColor=none;endArrow=block;endFill=0;endSize=8;" edge="1" parent="WIyWlLk6GJQsqaUBKTNV-1" source="8oeeknY7nhdR1By7YojH-75" target="8oeeknY7nhdR1By7YojH-80">
          <mxGeometry relative="1" as="geometry">
            <mxPoint x="460" y="3030" as="targetPoint" />
          </mxGeometry>
        </mxCell>
        <mxCell id="8oeeknY7nhdR1By7YojH-75" value="¿Se ha alcanzado la optimalidad o el límite de iteraciones?" style="rhombus;whiteSpace=wrap;html=1;fontFamily=Helvetica;fontSize=11;fontColor=default;labelBackgroundColor=none;" vertex="1" parent="WIyWlLk6GJQsqaUBKTNV-1">
          <mxGeometry x="115" y="2950" width="210" height="160" as="geometry" />
        </mxCell>
        <mxCell id="8oeeknY7nhdR1By7YojH-78" value="No" style="text;html=1;align=center;verticalAlign=middle;whiteSpace=wrap;rounded=0;fontFamily=Helvetica;fontSize=11;fontColor=default;labelBackgroundColor=none;" vertex="1" parent="WIyWlLk6GJQsqaUBKTNV-1">
          <mxGeometry x="30" y="3000" width="60" height="30" as="geometry" />
        </mxCell>
        <mxCell id="8oeeknY7nhdR1By7YojH-81" style="edgeStyle=orthogonalEdgeStyle;shape=connector;rounded=0;orthogonalLoop=1;jettySize=auto;html=1;exitX=1;exitY=0.5;exitDx=0;exitDy=0;shadow=0;strokeColor=default;strokeWidth=1;align=center;verticalAlign=middle;fontFamily=Helvetica;fontSize=11;fontColor=default;labelBackgroundColor=none;endArrow=block;endFill=0;endSize=8;" edge="1" parent="WIyWlLk6GJQsqaUBKTNV-1" source="8oeeknY7nhdR1By7YojH-80" target="8oeeknY7nhdR1By7YojH-82">
          <mxGeometry relative="1" as="geometry">
            <mxPoint x="600" y="3030.421052631579" as="targetPoint" />
          </mxGeometry>
        </mxCell>
        <mxCell id="8oeeknY7nhdR1By7YojH-80" value="Extracción de la solución" style="rounded=1;whiteSpace=wrap;html=1;fontFamily=Helvetica;fontSize=11;fontColor=default;labelBackgroundColor=none;" vertex="1" parent="WIyWlLk6GJQsqaUBKTNV-1">
          <mxGeometry x="400" y="3000" width="120" height="60" as="geometry" />
        </mxCell>
        <mxCell id="8oeeknY7nhdR1By7YojH-84" style="edgeStyle=orthogonalEdgeStyle;shape=connector;rounded=0;orthogonalLoop=1;jettySize=auto;html=1;shadow=0;strokeColor=default;strokeWidth=1;align=center;verticalAlign=middle;fontFamily=Helvetica;fontSize=11;fontColor=default;labelBackgroundColor=none;endArrow=block;endFill=0;endSize=8;" edge="1" parent="WIyWlLk6GJQsqaUBKTNV-1" source="8oeeknY7nhdR1By7YojH-82" target="8oeeknY7nhdR1By7YojH-85">
          <mxGeometry relative="1" as="geometry">
            <mxPoint x="850" y="3030" as="targetPoint" />
          </mxGeometry>
        </mxCell>
        <mxCell id="8oeeknY7nhdR1By7YojH-82" value="Extraer los valores de las variables básicas del tableau" style="shape=parallelogram;perimeter=parallelogramPerimeter;whiteSpace=wrap;html=1;fixedSize=1;fontFamily=Helvetica;fontSize=11;fontColor=default;labelBackgroundColor=none;" vertex="1" parent="WIyWlLk6GJQsqaUBKTNV-1">
          <mxGeometry x="574" y="3000" width="206" height="60" as="geometry" />
        </mxCell>
        <mxCell id="8oeeknY7nhdR1By7YojH-83" value="Si" style="text;html=1;align=center;verticalAlign=middle;whiteSpace=wrap;rounded=0;fontFamily=Helvetica;fontSize=11;fontColor=default;labelBackgroundColor=none;" vertex="1" parent="WIyWlLk6GJQsqaUBKTNV-1">
          <mxGeometry x="322.5" y="3000" width="60" height="30" as="geometry" />
        </mxCell>
        <mxCell id="8oeeknY7nhdR1By7YojH-86" style="edgeStyle=orthogonalEdgeStyle;shape=connector;rounded=0;orthogonalLoop=1;jettySize=auto;html=1;shadow=0;strokeColor=default;strokeWidth=1;align=center;verticalAlign=middle;fontFamily=Helvetica;fontSize=11;fontColor=default;labelBackgroundColor=none;endArrow=block;endFill=0;endSize=8;" edge="1" parent="WIyWlLk6GJQsqaUBKTNV-1" source="8oeeknY7nhdR1By7YojH-85" target="8oeeknY7nhdR1By7YojH-87">
          <mxGeometry relative="1" as="geometry">
            <mxPoint x="1090" y="3030" as="targetPoint" />
          </mxGeometry>
        </mxCell>
        <mxCell id="8oeeknY7nhdR1By7YojH-85" value="Mostrar solución óptima y el valor de Z" style="shape=parallelogram;perimeter=parallelogramPerimeter;whiteSpace=wrap;html=1;fixedSize=1;fontFamily=Helvetica;fontSize=11;fontColor=default;labelBackgroundColor=none;" vertex="1" parent="WIyWlLk6GJQsqaUBKTNV-1">
          <mxGeometry x="810" y="3000" width="230" height="60" as="geometry" />
        </mxCell>
        <mxCell id="8oeeknY7nhdR1By7YojH-87" value="Fin del proceso" style="rhombus;whiteSpace=wrap;html=1;fontFamily=Helvetica;fontSize=11;fontColor=default;labelBackgroundColor=none;" vertex="1" parent="WIyWlLk6GJQsqaUBKTNV-1">
          <mxGeometry x="1080" y="2990" width="110" height="80" as="geometry" />
        </mxCell>
      </root>
    </mxGraphModel>
  </diagram>
</mxfile>
